<svg viewBox="0 0 133 123" xmlns="http://www.w3.org/2000/svg" fill-rule="evenodd" clip-rule="evenodd" stroke-linejoin="round" stroke-miterlimit="1.414"><g transform="translate(-124 -255.5)"><clipPath id="a"><path d="M257 256h557v129H257z"/></clipPath></g><circle cx="18.489" cy="85.264" r="11.918" fill="url(#_Linear2)" transform="translate(-5.582 .836)"/><path d="M51.002 99.018c10.581 0 17.835-5.632 17.835-18.005v-40.79H56.89v40.619c0 5.974-2.475 7.51-6.4 7.51-4.096 0-5.803-2.816-7.68-6.144l-9.728 5.888c2.816 5.973 8.363 10.922 17.92 10.922zM97.082 99.018c11.349 0 19.797-5.888 19.797-16.64 0-9.984-5.717-14.421-15.872-18.773l-2.986-1.28c-5.12-2.22-7.339-3.67-7.339-7.253 0-2.902 2.219-5.12 5.717-5.12 3.414 0 5.632 1.45 7.68 5.12l9.302-5.974c-3.926-6.912-9.387-9.557-16.982-9.557-10.666 0-17.493 6.827-17.493 15.787 0 9.728 5.717 14.336 14.336 18.005l2.987 1.28c5.461 2.389 8.704 3.84 8.704 7.936 0 3.413-3.158 5.888-8.107 5.888-5.888 0-9.216-3.072-11.776-7.253l-9.728 5.632c3.499 6.912 10.667 12.202 21.76 12.202z" fill="#fff" fill-rule="nonzero"/><path d="M10 68h6V6h111v111H16v-13h-6v19h123V0H10v68" fill="#fff"/><defs><linearGradient id="_Linear2" x2="1" gradientUnits="userSpaceOnUse" gradientTransform="matrix(0 24 -24 0 18.582 73.164)"><stop offset="0" stop-color="#f1592c"/><stop offset="1" stop-color="#e80c85"/></linearGradient></defs></svg>